Lola (Grandmother) is the story of a random act of violence and how it’s affected by the grandmother’s of those involved. The film starts with Lola Sepa who is traveling through the mean streets of Manlia with her grandson. They are on their way to make an appointment. When the picture starts, you’re not quite sure what these two are up to. It’s not until they meet up with Lola Sepa’s daughter at a funeral home. They are shopping for coffins. This opening scene is done in a very interesting way. The point of the scene is the purchasing of coffins but before then are smaller scenes of prayers at a church, a memorial, and a mugging on the streets. When we get to the funeral home we think Lola Sepa is buying a coffin for herself but then we find out she’s buying a coffin for her grandson, who was murdered days before.

Lola Carpin is the grandmother of the suspected killer, Mateo. We first meet Lola Carpin visiting her grandson in prison. We are brought to this rather scary and rough Filipino prison filled with equally scary and rough prisoners. On first meeting with her grandson, Lola Carpin is more concerned with general well being of Mateo. She asks him whether or not he has eaten dinner today. This is an organic response of a grandmother visiting her grandson. In this way, her view of Mateo is genuine. Her feelings towards his alleged crime is non-existent rather she ignores the suspicions and the backdrop of the scene.

Mendoza plays this film in an interesting way, dealing with grief and loss through the strength of two elderly matriarchs. One deals with it buy accepting and moving on, the other ignores and manufactures her perfect family. Both are caretakers of their respective families so who are we to judge whether one way is better than the other. Mendoza puts these ideas in the context of the grief. His camera is objective, shot as a documentary, Mendoza follows the action rather than creates it.

   General
      Complete name : Lola.avi
      Format : AVI
      Format/Info : Audio Video Interleave
      File size : 1.47 GiB
      Duration : 1h 49mn
      Overall bit rate : 1 915 Kbps
      Writing application : VirtualDubMod 1.5.10.2 (build 2540/release)
      Writing library : VirtualDubMod build 2540/release
   Video #0
      ID : 0
      Format : MPEG-4 Visual
      Format profile : AdvancedSimple@L5
      Format settings, BVOP : Yes
      Format settings, QPel : No
      Format settings, GMC : No warppoints
      Format settings, Matrix : Default (MPEG)
      Codec ID : XVID
      Codec ID/Hint : XviD
      Duration : 1h 49mn
      Bit rate : 1 681 Kbps
      Width : 704 pixels
      Height : 400 pixels
      Display aspect ratio : 16:9
      Frame rate : 25.000 fps
      Resolution : 24 bits
      Colorimetry : 4:2:0
      Scan type : Progressive
      Bits/(Pixel*Frame) : 0.239
      Stream size : 1.29 GiB (88%)
      Writing library : XviD 1.2.1 (UTC 2008-12-04)
   Audio #1
      ID : 1
      Format : AC-3
      Format/Info : Audio Coding 3
      Codec ID : 2000
      Duration : 1h 49mn
      Bit rate mode : Constant
      Bit rate : 224 Kbps
      Channel(s) : 2 channels
      Channel positions : L R
      Sampling rate : 48.0 KHz
      Stream size : 176 MiB (12%)
      Alignment : Split accross interleaves
      Interleave, duration : 40 ms (1.00 video frame)
      Interleave, preload duration : 500 ms
 
http://www.imdb.com/title/tt1496792/

Tagalog audio; Portuguese subtitles

Posted originally at KG by duder, whom we thank

Brillante Mendoza - Lola (2009)
